# xmcd CD database file
#
# Track frame offsets:
#	150
#	23842
#	45360
#
# Disc length: 925 seconds
#
# Revision: 0
# Processed by: cddbd v1.5.1PL0 Copyright (c) Steve Scherf et al.
# Submitted via: CDex 1.51
#
DISCID=17039b03
DTITLE=SURFACE - NEWS
DYEAR=2003
DGENRE=J-POP
TTITLE0=NEWS
TTITLE1=食卓
TTITLE2=NEWS (Instrumental)
EXTD=YEAR: 2003
EXTT0=
EXTT1=
EXTT2=
PLAYORDER=
